<?xml version="1.0" encoding="utf-8"?>
<!-- Generator: Adobe Illustrator 19.0.0, SVG Export Plug-In . SVG Version: 6.00 Build 0)  -->
<svg version="1.1" id="Layer_1" xmlns="http://www.w3.org/2000/svg" xmlns:xlink="http://www.w3.org/1999/xlink" x="0px" y="0px"
	 viewBox="0 0 1000 1000" style="enable-background:new 0 0 1000 1000;" xml:space="preserve">
<style type="text/css">
	.st0{fill:url(#XMLID_15_);}
	.st1{fill:url(#XMLID_16_);}
	.st2{fill:url(#XMLID_17_);}
	.st3{fill:url(#XMLID_18_);}
	.st4{fill:url(#XMLID_19_);}
</style>
<g id="XMLID_178_">
	<linearGradient id="XMLID_15_" gradientUnits="userSpaceOnUse" x1="849.9607" y1="696.4636" x2="849.9607" y2="437.5253">
		<stop  offset="0" style="stop-color:#EE2749"/>
		<stop  offset="1" style="stop-color:#F1592B"/>
	</linearGradient>
	<path id="XMLID_206_" class="st0" d="M981.7,563.9V468c0-16.8-13.7-30.5-30.5-30.5c-13.8,0-25.5,9.2-29.2,21.9
		c-20.7-13.3-45.4-21-72-21c-72.6,0-131.7,57.9-131.7,129s59.1,129,131.7,129c26.9,0,51.9-7.9,72.8-21.6
		c4.4,11.3,15.5,19.4,28.4,19.4c16.8,0,30.5-13.7,30.5-30.5v-92.9c0-1.2,0.1-2.3,0.1-3.5C981.7,566.3,981.7,565.1,981.7,563.9z
		 M895.2,584c-16.2,9.4-42.7,24.7-59,34c-16.2,9.4-29.5,1.7-29.5-17s0-49.4,0-68.1s13.3-26.4,29.5-17c16.2,9.4,42.7,24.7,59,34
		C911.4,559.3,911.4,574.7,895.2,584z"/>
	<linearGradient id="XMLID_16_" gradientUnits="userSpaceOnUse" x1="148.3013" y1="701.4001" x2="148.3013" y2="441.5815">
		<stop  offset="0" style="stop-color:#EE2749"/>
		<stop  offset="1" style="stop-color:#F1592B"/>
	</linearGradient>
	<path id="XMLID_222_" class="st1" d="M278.2,469.1c0-0.5-0.1-0.9-0.2-1.3c-0.1-0.5-0.1-1.1-0.2-1.6c-0.1-0.5-0.2-1-0.4-1.5
		c-0.1-0.5-0.2-0.9-0.4-1.4c-0.1-0.5-0.3-1-0.5-1.5c-0.2-0.5-0.3-0.9-0.5-1.4c-0.2-0.5-0.4-0.9-0.6-1.3c-0.2-0.5-0.4-0.9-0.7-1.4
		c-0.2-0.4-0.5-0.8-0.7-1.2c-0.3-0.4-0.5-0.9-0.8-1.3c-0.3-0.5-0.6-0.9-1-1.3c-0.3-0.4-0.5-0.7-0.8-1.1c-1.3-1.6-2.7-3-4.3-4.3
		c-0.4-0.3-0.7-0.5-1.1-0.8c-0.4-0.3-0.9-0.7-1.3-1c-0.4-0.3-0.9-0.5-1.3-0.8c-0.4-0.2-0.8-0.5-1.2-0.7c-0.5-0.2-0.9-0.4-1.4-0.7
		c-0.4-0.2-0.9-0.4-1.3-0.6c-0.5-0.2-0.9-0.3-1.4-0.5c-0.5-0.2-1-0.4-1.5-0.5c-0.5-0.1-0.9-0.2-1.4-0.4c-0.5-0.1-1-0.3-1.5-0.4
		c-0.5-0.1-1.1-0.2-1.6-0.2c-0.4-0.1-0.9-0.1-1.3-0.2c-1-0.1-2-0.2-3-0.2H52c-16.8,0-30.5,13.7-30.5,30.5
		c0,16.8,13.7,30.5,30.5,30.5h122L27.2,649.3c0,0,0,0,0,0c-0.7,0.7-1.4,1.4-2,2.2c-0.3,0.4-0.5,0.7-0.8,1.1c-0.3,0.4-0.7,0.9-1,1.3
		c-0.3,0.4-0.5,0.9-0.8,1.3c-0.2,0.4-0.5,0.8-0.7,1.2c-0.2,0.5-0.4,0.9-0.7,1.4c-0.2,0.4-0.4,0.9-0.6,1.3c-0.2,0.4-0.3,0.9-0.5,1.4
		c-0.2,0.5-0.4,1-0.5,1.5c-0.1,0.5-0.2,0.9-0.4,1.4c-0.1,0.5-0.3,1-0.4,1.5c-0.1,0.5-0.2,1.1-0.2,1.6c-0.1,0.4-0.1,0.9-0.2,1.3
		c-0.2,2-0.2,4,0,6c0,0.5,0.1,0.9,0.2,1.3c0.1,0.5,0.1,1.1,0.2,1.6c0.1,0.5,0.2,1,0.4,1.5c0.1,0.5,0.2,0.9,0.4,1.4
		c0.1,0.5,0.3,1,0.5,1.5c0.2,0.5,0.3,0.9,0.5,1.4c0.2,0.5,0.4,0.9,0.6,1.3c0.2,0.5,0.4,0.9,0.7,1.4c0.2,0.4,0.5,0.8,0.7,1.2
		c0.3,0.4,0.5,0.9,0.8,1.3c0.3,0.5,0.6,0.9,1,1.3c0.3,0.4,0.5,0.7,0.8,1.1c1.3,1.6,2.7,3,4.3,4.3c0.4,0.3,0.7,0.5,1.1,0.8
		c0.4,0.3,0.9,0.7,1.3,1c0.4,0.3,0.9,0.5,1.3,0.8c0.4,0.2,0.8,0.5,1.2,0.7c0.5,0.2,0.9,0.4,1.4,0.7c0.4,0.2,0.9,0.4,1.3,0.6
		c0.4,0.2,0.9,0.3,1.4,0.5c0.5,0.2,1,0.4,1.5,0.5c0.5,0.1,0.9,0.2,1.4,0.4c0.5,0.1,1,0.3,1.5,0.4c0.5,0.1,1.1,0.2,1.6,0.2
		c0.4,0.1,0.9,0.1,1.3,0.2c1,0.1,2,0.2,3,0.2h195.8c16.8,0,30.5-13.7,30.5-30.5c0-16.8-13.7-30.5-30.5-30.5H122.4l144.8-144.8
		c1.5-1.3,3-2.7,4.2-4.2c0.3-0.4,0.5-0.7,0.8-1.1c0.3-0.4,0.7-0.9,1-1.3c0.3-0.4,0.5-0.9,0.8-1.3c0.2-0.4,0.5-0.8,0.7-1.2
		c0.2-0.5,0.4-0.9,0.7-1.4c0.2-0.4,0.4-0.9,0.6-1.3c0.2-0.4,0.3-0.9,0.5-1.4c0.2-0.5,0.4-1,0.5-1.5c0.1-0.5,0.2-0.9,0.4-1.4
		c0.1-0.5,0.3-1,0.4-1.5c0.1-0.5,0.2-1.1,0.2-1.6c0.1-0.4,0.1-0.9,0.2-1.3C278.4,473.1,278.4,471.1,278.2,469.1z"/>
	<linearGradient id="XMLID_17_" gradientUnits="userSpaceOnUse" x1="397.9515" y1="696.0235" x2="397.9515" y2="437.9654">
		<stop  offset="0" style="stop-color:#EE2749"/>
		<stop  offset="1" style="stop-color:#F1592B"/>
	</linearGradient>
	<path id="XMLID_208_" class="st2" d="M526.6,532.8c-15.3-54.6-66.5-94.9-127-94.9c-72.6,0-131.7,57.9-131.7,129s59.1,129,131.7,129
		c29.7,0,57.2-9.7,79.2-26c0,0,0,0,0,0c1.8-1.2,3.5-2.5,5.1-4.1c11.9-11.9,11.9-31.3,0-43.3c-11.3-11.3-29.4-11.9-41.4-1.7
		c-11.9,8.8-26.8,14-42.9,14c-36.9,0-67.3-27.4-70.4-62.1h166.4c1.4,0.1,2.8,0.1,4.2,0h0.1v0c7.1-0.5,14-3.4,19.4-8.9
		C527.6,555.6,530.1,543.4,526.6,532.8C526.6,532.8,526.6,532.8,526.6,532.8z"/>
	<linearGradient id="XMLID_18_" gradientUnits="userSpaceOnUse" x1="569.6017" y1="696.4636" x2="569.6017" y2="298.5999">
		<stop  offset="0" style="stop-color:#EE2749"/>
		<stop  offset="1" style="stop-color:#F1592B"/>
	</linearGradient>
	<path id="XMLID_209_" class="st3" d="M569.6,298.6c-16.8,0-30.5,13.7-30.5,30.5V666c0,16.8,13.7,30.5,30.5,30.5
		c16.8,0,30.5-13.7,30.5-30.5V329.1C600.1,312.3,586.4,298.6,569.6,298.6z"/>
	<linearGradient id="XMLID_19_" gradientUnits="userSpaceOnUse" x1="663.5497" y1="696.4636" x2="663.5497" y2="298.5999">
		<stop  offset="0" style="stop-color:#EE2749"/>
		<stop  offset="1" style="stop-color:#F1592B"/>
	</linearGradient>
	<path id="XMLID_210_" class="st4" d="M663.5,298.6c-16.8,0-30.5,13.7-30.5,30.5V666c0,16.8,13.7,30.5,30.5,30.5
		c16.8,0,30.5-13.7,30.5-30.5V329.1C694,312.3,680.4,298.6,663.5,298.6z"/>
</g>
</svg>
