<svg id="Layer_1" data-name="Layer 1" xmlns="http://www.w3.org/2000/svg" viewBox="0 0 956 411.56"><defs><style>.cls-1{fill:#fff;}</style></defs><title>zella</title><path class="cls-1" d="M525,463.12c-3-5.34-5.6-10.48-9-15.38q-20.3-30.1-51.39-44.06t-70-14c-43.65,0-78.94,13.77-106.29,41.29-8,8.09-16.33,17.25-20.33,27.42V399H31v63H169.36L22,634.8V698H271V647.89c7,8,13.15,15,20.67,21C322,693.35,357.39,705.56,397,705.56q72,0,112.13-43.44c6.26-6.65,10.84-13.25,15.84-19.83V698h78V294H525V463.12ZM121.5,633L262.72,468.82c-10.38,22.65-15.58,50.21-15.58,82,0,32.69,5.38,60.2,16.06,82.2H121.5ZM348.21,470.93q16.5-17,46.48-17,27.56,0,46.18,16c12.41,10.7,19.32,28,20.74,47H327.46C330.29,499,337.2,482.27,348.21,470.93ZM458.89,608c-4.63,9-10,15.72-16,20.64-11.09,9.11-25.5,13.74-43.24,13.74-16.73,0-31-3.4-42.93-10.87-19.55-12-29.93-32.51-31.14-62.51H525v39H458.89Z" transform="translate(-22 -294)"/><path class="cls-1" d="M966.53,675c-2.55-3.64-4.27-10.56-4.81-20.76-0.37-13.48-.71-25-0.71-34.42V483.17c0-35.88-12.55-60.29-38-73.22s-54.43-19.4-87.18-19.4c-50.31,0-85.76,14.57-106.43,40.8-13,16.76-20.27,37.66-21.91,65.66h75.14c1.84-13,5.54-22,11.08-28.77,7.75-9.11,21-14.39,39.6-14.39,16.62,0,29.22,2,37.8,6.6S884,473.33,884,485.53c0,10-5.6,17.3-16.79,22-6.24,2.73-16.61,5-31.1,6.78l-26.7,3.26c-30.28,3.82-53.42,10.19-69,19.11-21.65,12.48-34.41,30.82-40.41,55V294H623V698h77V640.15c6,16.95,12,30.79,24.27,41.51,17.68,15.39,40.18,23.09,67.29,23.09q31.88,0,57.21-14.48a161,161,0,0,0,37.4-29.78c0.55,6.74,1.29,14,2.2,19.3A122.92,122.92,0,0,0,893.3,698H978V684C971.22,681.62,969.07,678.61,966.53,675ZM881,579.61c0,26-6.63,44-21,53.82s-29.32,14.75-46.34,14.75c-10.73,0-19.49-3-27-8.88s-11.07-15.53-11.07-28.82c0-14.93,6.22-26,18.48-33.06,7.24-4.19,19.22-7.74,35.83-10.66l17.75-3.28a107.13,107.13,0,0,0,19.55-5.33c5.08-1.91,10.74-4.41,13.74-7.51v29Z" transform="translate(-22 -294)"/></svg>